<?xml version="1.0" encoding="UTF-8"?>
<svg id="Layer_2" data-name="Layer 2" xmlns="http://www.w3.org/2000/svg" viewBox="0 0 705.66 741.93">
  <defs>
    <style>
      .cls-1 {
        fill: #b52024;
      }
    </style>
  </defs>
  <g id="BG">
    <g>
      <path class="cls-1" d="M659.16,90.12l-5.11.62-12.25-1.22,4.06,1.62c11.87,3.41,24.24,2.53,35.14-3.43,1.68-5.61,5.56-18.92,13.14-11.32,2.43,2.43,1.41,5.61,2.44,7.74.86,1.76,14.75,5.86,6.4,9.39-7.06,2.98-17.94,9.11-24.97,9.77-5.53.52-15.96.09-21.57-.57-30.43-3.61-60.82-3.91-91.6-5.4-23.51-1.14-47.22-3.08-70.65-4.8-47.64-3.51-89.35-9.34-134.56,10.96-23.98,10.76-59.28,38.27-72.43,61.12-4.32,7.51-7.26,16.52-12.47,23.46-1.07,1.42-5,4.13-4.67,5.88.12.65,1.15,1.34,1.39,2.19.53,1.88,1.02,4.46,1.37,6.42.38,2.12-3.63-.36-4.41-.41-1.12-.07-2.22.71-3.52.59-.76-.07-7.79-2.14-8.32-2.51-.95-.66-2.21-3.58-3.39-4.99-5.53-6.6-10.32-6.44-17.64-8.71-1.68-.52-11.13-3.28-11.57-3.7-1.87-1.8.27-4.05.43-5.59,2.98-29.92-24.87-71.76-48.78-88.3-17.89-12.38-52.21-19.93-73.62-21-25.43-1.27-52.3,2.6-77.3-1.14-10.77-1.61-11.03-2.01-19.13-9.02-1.64-1.41-5.86-2.98-5.56-6.2.42-4.6,7.76-3.38,8.91-4.82,1.96-2.47-2.17-13.13,5.64-12.39,5.51.52,3.95,9.39,6.36,13.44,1.53,2.57,8.58,6.7,6.83,9.98-.73,1.37-3.58.95-3.32,2.98.26.22,5.89-.6,6.74-.74,18.72-2.98,31.93-3.13,50.31-10.78,19.61-8.16,30.34-22.38,47.92-32.32s32.65-8.25,50.33.21,26.92,25.77,45.48,33.57c4.99,2.1,18,6.55,22.84,5.84,12.2-1.78,25.19-4.52,36.66-9.44,27.92-11.98,46.12-40.55,76.59-46.17,30.36-5.6,74.2,15.85,103.25,25.99,46.24,16.15,93.32,29.75,138.78,48.06,18.63,4.95,37.34,9.68,55.81,15.15ZM435.22,36.8c.36-.37-.07-2.02-.61-2.68-1.59-1.94-7.64-6.92-9.89-8.68-9.61-7.51-22.13-12.5-34.41-12.59,2.61,2.39,5.91,3.74,8.66,6,7.97,6.55,12.48,16.13,13.49,26.33.52.59,6.9-4.32,7.97-4.9,1.78-.99,8.06-3.91,9.69-3.96.98-.03,4.55,1.03,5.09.48ZM310.67,49.38h11.08c1.28,0,7.14,2.07,8.68,2.7,2.74,1.13,6.7,4.25,8.96,4.83.71.18,1.04.49,1.54-.32.7-1.14.52-14.27.91-17.05.68-4.78,2.96-11.15,5.97-14.99,1.49-1.9,9.3-8.4,9.56-9.01.52-1.22-.84-.84-1.48-.89-16.39-1.3-29.81,20.84-40.71,30.56-1.62,1.45-4.33,1.94-4.51,4.18ZM372.23,15.38c-26.06,1.41-32.03,46.32-12.38,59.38,14.15,9.41,29.57,6.34,38.13-8.41,6.58-11.33,9.3-32.47-1.74-41.77-5.36-4.51-17.02-9.58-24.01-9.2ZM157.97,20.63h-8.68c-3.08,0-14.93,6.32-18.26,8.09l6.79,2.77c1.51.15,3.86,2.92,4.88,2.93,1.76,0,4.8-6.37,6.87-8.12s4.56-2.7,6.86-3.91c.84-.44,1.79-.31,1.53-1.76ZM487.91,84.72c1.13-1.18-4.15-5.48-5.03-6.64-5.03-6.6-6.18-13.7-2.04-21.1,3.42-6.13,9.09-7.78,14.85-10.89l-58.07-20.66c-1.27,1.16,5.72,5.5,6.27,6,12.29,11.25,17.3,28.11,20.04,44.04.28,1.65-.36,6.13,1.2,7.2.41.28,8.18-.41,9.9-.34,4.45.19,8.58,1.43,12.88,2.39ZM160.79,31.54c-2.35.7-7.81,8.66-8.62,11.14-3.27,9.94,4.99,21.53,15.14,22.83,3.72.47,8.39.41,10.7-2.98,2.45-3.6,5.93-12.11,5.78-16.44-.22-6.11-6.01-13.99-12.33-14.67-1.87-.2-9.18-.32-10.66.12ZM192.11,35.61c.79,2.55,1.75,5.39,1.8,8.11s-2.42,9.93,1.46,9.89c3.05-.03,7.23-1.02,10.53-.91,1.1-.68,0-2.44-.39-3.25-1.24-2.5-9.01-11.8-11.28-13.27-.73-.48-1.19-.74-2.12-.57ZM129.05,40.52c-2.25.68-4.84,4.84-4.65,7.36.08,1.03,2.12,6.36,2.73,6.9,3.3,2.89,9.89-3.78,9.91-6.88.02-3.83-3.88-8.62-7.98-7.37ZM429.03,42.93c-2.38.21-7.4,2.79-9.05,4.69-7.03,8.08-4.48,21.69,5.84,25.84,4.13,1.66,6.7,2.09,10.82-.19,7.68-4.26,7.15-17.6,2.5-23.91-1.36-1.85-8.03-6.61-10.11-6.42ZM113.58,44.67c-.71-.46-3.13-.06-4.08.25-3.85,1.26-13.2,9.04-17.68,11.66-2.19,1.28-5.51,1.94-6.9,4.17,5.5.59,11.12-.64,16.49-.62,1.27,0,2.41.57,3.57.62,5.7.22,10.29.19,15.86,1.8-.63-3.39-4.89-5.18-5.7-8.36-.43-1.69-.38-8.76-1.56-9.52ZM523.84,54.78c-4.12-2.62-8.6-2.77-13.17-4.2.12,2.39,2.48,3.72,3.84,5.44,1.89,2.41,1.75,5.73,5.48,3.57.67-.39,4.3-4.16,3.85-4.81ZM496.14,51.92c-3.37.52-9.55,4.25-11.47,7.09s-2.99,7.86-1.82,11.3c.77,2.28,4.79,6.56,7.3,7.08,1.72.35,10.82.42,12.13-.17.37-.17,3.79-4.29,4.11-4.87.68-1.23,2.33-9.36,2.17-10.44-.15-1.02-3.43-6.84-4.19-7.72-1.82-2.11-5.62-2.67-8.23-2.26ZM315.3,56.11c-17.69,2.7-20.59,24.24-13.52,37.8,5.19,9.95,19.78,19.33,29.86,10.29,11.11-9.96,14.03-29.05,4.43-40.99-4.28-5.31-14.15-8.11-20.76-7.1ZM241.18,159.56c.33-.23,2.67-6.41,3.05-7.44,5.23-14.25,9.04-28.17,15.25-42.25,7.13-16.19,16.1-31.25,26.21-45.71,1.07-2.65-1.7-3.1-3.9-2.67-5.14.99-11.16,3.76-16.36,4.62-9.26,1.53-20.12.89-28.99-2.07-4.79-1.6-9.09-4.47-13.78-6.27-1.1,1.24,4.4,7.83,5.28,9.38,15.1,26.8,7.22,45.06,8.49,72.96.1,2.21,1,4.94,1.18,7.2.24,2.87-.56,7.63.13,10.05.31,1.06,2.48,2.86,3.44,2.2ZM134.62,66.15c2.44.07,15.61,3.67,16.16.88.44-2.22-5.48-7.13-7.48-8.09-2.26,2.19-5.29,3.66-7.68,5.52-.66.52-1.24.6-1,1.69ZM546.59,62.57c-1.93,0-5.63-2.79-6.99-2.92-2.78-.25-.5,6.23,2.13,6.81,1.81.4,5.57-2.95,4.86-3.89ZM195.51,62.67c-1.41.42-4.56,7.28-4.91,8.86-.93,4.22.43,9.09,4.09,11.5,5.66,3.73,11.05,1.71,14.78-3.41,5.98-8.21.66-16.27-8.69-17.06-1.36-.11-4.08-.25-5.26.1ZM456.77,81.12c.17-2.24-1.39-4.34-1.75-6.33-.43-2.4-.27-9.81-1.53-11.04-2.92-2.86-3.71,4.08-4.18,5.41-1.69,4.79-8.2,7.91-11.09,11.96,6.3.04,12.25-1.3,18.56,0ZM524.86,64.48c-.55.16-3.48,2.98-3.7,3.48-1.54,3.4,1.21,10.76,4.5,12.27,4.01,1.85,9.42-7.06,8.95-10.73-.5-3.99-6.3-6.05-9.75-5.02ZM419.64,79.34c-4.73-2.14-7.31-6.44-10.25-10.41-2.52-3.4-5.35,3.9-6.79,5.62-3.07,3.68-7.14,6.75-10.49,10.16,4.8,1.18,8.64-1.94,12.88-2.38,4.83-.5,13,2.26,14.66-2.99ZM551.83,69.83c-1.6.22-5.55,3.34-5.84,5.03-.51,2.96,2.84,7.34,6.21,5.59,5.95-3.1,3.78-11.19-.36-10.62ZM625.63,90.12c-8.46-4.93-18.13-6.46-27.27-9.57-8.07-2.74-24.95-10.46-32.3-10.82-.7-.03-1.41.03-2.11.02,2.66,8.01-3.17,13.45-7.2,19.45-.02.59,2.61.89,3.27.94,7.99.52,17.48-.94,25.2-.05,4.48.52,9.04,1.63,13.73,1.84,4.18.19,22.67.6,25.32-.48.45-.18,1.58-1,1.35-1.34ZM181.92,70.94c-5.44,1.27-9.82,2.93-15.57,2.7,0,.35,4.87,2.06,5.8,2.59,2.15,1.21,5.97,4.69,7.93,5.25.78.23,1.84-.02,1.84-.65v-9.88ZM294.5,97.29c-.42-4.2-3.76-6.31-4.52-10.75-.21-1.2.32-11.96-2.06-10.21-.54.4-4.04,9.96-5.49,12.18-.96,1.47-8.84,9.41-7.69,10.57,2.76-.22,4.73-2.07,7.48-2.39,4.13-.49,8.16.89,12.27.6ZM224.96,89.42c.83-1.33-.39-5.37-1-6.91-3.66-9.12-5.6-1.59-7.63,3.42,1.19,1.17,7.41,5.46,8.64,3.49ZM342.4,101.49c8.71-2.64,16.15-9.01,25.46-10.17,1.24-.15,6.85.52,6.86-.91l-24.53-12.28c-.7,4.89-1.51,9.73-3.31,14.36-1.21,3.1-3.28,5.9-4.48,8.99ZM519.65,85.91c.97-1.15-5.85-7.82-6.9-7.82-.98,0-4.51,5.82-4.52,6.33-.04,3.19,9.21,2.07,11.41,1.49ZM543.6,88.31c.22-1.33-1.56-5.07-2.77-5.3-1.02-.19-7.05,3.38-6.21,5.3h8.98ZM203.32,96.85c-1.42-1.51-6.27-2.27-7.03.43l6.87,3.61c1.34-.78,1.08-3.05.15-4.04ZM212.03,97.47c-2.69,2.7-.08,7.43,2.65,8.14,2.24.58,6.48-3.57,6.66-5.72.22-2.59-6.56-5.17-9.31-2.42ZM279.14,130.03c5.36,5.36,13.71,5.21,19.15.12,3.01-2.82,3.84-5.66,3.87-9.78.09-13.79-12.13-22.48-24.03-13.97-6.48,4.64-4.21,18.43,1.01,23.64ZM210.07,113.47c-1.09,1.13,7.29,12.8,8.67,14.38s5.15,5.94,7.49,4.49c4.06-2.5,2.43-18.04,2.12-22.49-1.18-1.85-4.26,2.81-5.41,3.61-5.12,3.56-7.56.84-12.86,0ZM324.43,113.47c-5.24,1.06-10.36,1.05-15.25-1.2-1.86.37.97,3.89,1.2,4.77,1.11,4.33-1.68,6.19-1.51,10.2,1.01,1.39,13.6-10.59,14.67-11.97.46-.6,1.16-.76.89-1.8ZM256.78,138.62c1.59-2.63,11.17-3.4,11.72-4.15.77-1.05-1.67-13.96-5.69-10.48-3.08,2.66-5.26,10.63-6.02,14.63ZM261.75,144.8c-9.44,10.06,8.86,23.42,15.4,12.71,2.16-3.54,1.64-6.56-.08-10.14-1-2.09-2.5-3.52-4.71-4.27-.51-.17-4.84-1.26-5.1-1.26-.59,0-4.99,2.41-5.5,2.96ZM291.95,141.73c-2.62.48-3.93.73-6.76,1.06-4.79.55.2,7.73,1.9,9.58,2.69-.51,11.81-11.92,4.86-10.64ZM253.77,160.79c-1.89-1.38-1.79,3.8-1.92,4.35-.93,3.95-2.33,9.71-2.22,13.82s4.05,8.63,8.58,8.17c4.91-.49,14.62-11.65,15.32-16.76-6.49-1.57-11.69-1.42-17.04-6.02-1.28-1.1-2.54-3.43-2.73-3.57Z"/>
      <g>
        <path class="cls-1" d="M206.64,740.99c-4.23-3.45.75-9.9,1.47-14.05,1.13-6.48,1.2-13.01,1.98-19.58,5.7-47.77,9.47-96.24,14.34-144.37.45-4.42-1.31-4.5-1.77-7.22-1.14-6.76,2.82-7.24,3.52-11.99.97-6.48.28-16.38.63-23.32,3.32-65.01,1.67-132.29,1.83-197.62.08-31.25-2.56-61.42-7.28-92.19-1.97-12.87-7.57-29.1-8.3-41.41-.24-4.08-.23-5.91,4.49-5.74,1.89.07,2.77.99,4.24,1.2,7.52,1.08,12.54.1,16.09,7.86,5.34,11.66,8.16,34.57,10.47,47.63,1.97,11.1,2.67,25.67,6.19,36.33.7,2.13,3.04,3.02,3.33,3.86,1.64,4.9,1.34,12.01,1.93,17.24,3.9,34.76,3.79,67.53,5.34,102.47,1.23,27.78.38,55.37,1.24,83.21.59,19.21-1.29,39.74-.02,58.71.09,1.38.43,5.5.71,6.47.57,2.01,4.04,2.02,2.42,5.66-.49,1.11-1.87,1.78-2.23,2.56-1.23,2.66.68,4.98.89,7.47.56,6.52-.2,14.56.58,20.99,5.05,41.97,9.69,84.05,17.84,125.3.81,4.12,1.06,8.76,2.08,12.9,1.09,4.45,5.59,10.26-.91,13.73-6.33,3.38-28.67.95-37.27,1.05-11.44.13-24.48,1.07-35.87,2.45-2.2.27-5.23,2.61-7.95.39ZM249.8,590.44c-.32.27-2.29,2.82-2.48,3.21-3.37,7.22-2.11,24.48,2.01,31.27,2.91,4.8,7.86,5.02,11.05.34s3.04-16.74,2.41-22.19c-.17-1.48-1.02-2.41-1.18-3.61-.43-3.05.92-5.39-1.5-8.08s-7.41-3.38-10.3-.96Z"/>
        <path class="cls-1" d="M259.16,267.4c-1.37,1.36-1.79-2.85-1.82-3.27-1.24-18.67,1.56-38.19.6-56.95.04-1.07,1.25-3.44,2.22-3.77,3.21-1.09,14.59,1.8,16.71,4.65,1.58,2.12.69,4.98.82,7.49-4.69,14.63-13.81,30.61-17.64,45.25-.33,1.25-.46,6.18-.89,6.6Z"/>
        <path class="cls-1" d="M257.97,276.38c-2.35,2.72-4.18-11.92-4.34-12.73-2.71-13.84-3.88-28.32-6.85-42.25-2.32-10.88-5.71-21.44-7.37-32.45.27-.3,6.16,2.4,7,2.88,8.42,4.74,12.06,12.96,10.98,22.59s-1.61,20.59-2.98,30.56c-.42,3.04.86,13.41,1.17,17.33.38,4.86,2.67,9.21,2.39,14.08Z"/>
      </g>
    </g>
  </g>
</svg>