<?xml version="1.0" encoding="UTF-8"?>
<svg id="Layer_2" data-name="Layer 2" xmlns="http://www.w3.org/2000/svg" viewBox="0 0 89.76 90.23">
  <defs>
    <style>
      .cls-1 {
        fill: #FAFAFA;
      }
    </style>
  </defs>
  <g id="Layer_1-2" data-name="Layer 1">
    <g>
      <path class="cls-1" d="M76.85,15.39l12.91-4.75-2.11-2.49-12.91,4.98S60.42.23,46.34,0c-14.08-.23-26.99,7.24-28.87,19.46s4.46,23.31,4.46,23.31l-6.81,7.01,1.88,1.81,6.57-6.78s12.67,15.83,28.87,15.83,33.09-7.92,30.5-31.45c-.92-8.37-6.1-13.8-6.1-13.8M79.43,44.35c-6.81,13.12-21.82,16.52-34.73,12.67-13.2-3.93-18.31-13.8-18.31-13.8,0,0,6.47-5.34,14.71-10.71.35-.23.71-.46,1.07-.68-.03-.09-.06-.17-.09-.26-1.96-6.21-2.47-12.34-2.47-14.71,0-2.96,5-4.85,8.45-4.85,2.88,0,3.68,1.29,3.9,2.06.62,2.16.35,3.92-.03,6.35-.24,1.58-.54,3.53-.66,6.11.46-.25.93-.5,1.39-.74,12.78-6.75,21.6-9.71,21.6-9.71,0,0,11.97,15.16,5.16,28.28"/>
      <path class="cls-1" d="M53.24,45.64s-6.26-3.88-9.61-13.43c-.15-.43-.29-.87-.43-1.3-1.89-6.01-2.33-11.92-2.33-13.87,0-3.03,9.19-5.21,9.99-2.42.95,3.28-.5,5.62-.72,12.25,0,.26-.02.54-.02.82-.07,4.6-.3,7.04,3.13,17.95"/>
      <path class="cls-1" d="M.32,88.41c-.55,2.22,9.14,2.77,17.25-.43,12.08-4.77,11.75-21.5,11.75-21.5,0,0-.77-.85-2.64.11-1.35.69-7.53,3.62-7.47,2.54.11-2.12,8.02-4.77,9.45-4.77s2.53-2.01.33-2.43c-2.2-.43-10.33,3.49-11.98,5.82-.89,1.26-2.09,4.55,1.65,3.71s8.46-2.75,8.46-2.75c0,0-1.17,12.31-8.9,16.52-9.34,5.08-17.37.99-17.91,3.18"/>
      <path class="cls-1" d="M37.02,69.82c0,.91-.76,1.64-1.7,1.64s-1.7-.74-1.7-1.64.76-1.64,1.7-1.64,1.7.74,1.7,1.64"/>
      <path class="cls-1" d="M51.74,69.29c0,.91-.76,1.64-1.7,1.64s-1.7-.74-1.7-1.64.76-1.64,1.7-1.64,1.7.74,1.7,1.64"/>
      <path class="cls-1" d="M68,68.66c0,.91-.76,1.64-1.7,1.64s-1.7-.73-1.7-1.64.76-1.64,1.7-1.64,1.7.74,1.7,1.64"/>
      <path class="cls-1" d="M79.77,68.66c0,.91-.76,1.64-1.7,1.64s-1.7-.73-1.7-1.64.76-1.64,1.7-1.64,1.7.74,1.7,1.64"/>
      <path class="cls-1" d="M40.64,89.26c1-.69-.44-4.03-.22-10.49.22-6.46.22-8.79,3.08-10.48,2.86-1.69,3.76-3.92,2.09-5.19-2.09-1.59-5.39-2.53-6.48-.42-.44.85,6.04.85,4.94,2.33-1.1,1.48-4.62,2.65-5.16,4.77-.55,2.12-.88,7.1-.55,11.23.29,3.63.77,9.32,2.31,8.26"/>
      <path class="cls-1" d="M59.32,70.72c2.97-.11,3.74-2.33,3.85-5.09.07-1.83-1.1-3.92-2.31-3.5-1.21.42,1.76,6.04-1.76,6.35-2.66.24-1.21-5.61-3.08-5.4-1.87.21-1.51,2.65-.99,4.34.66,2.12,1.98,3.37,4.29,3.29"/>
      <path class="cls-1" d="M72.35,69.77c1.65,0,1.88-10.28.99-20.44-.88-10.06-3.3-18.01-5.05-17.37-1.95.71,1.87,7.31,2.86,17.79,1.08,11.42-.33,20.02,1.21,20.02Z"/>
      <path class="cls-1" d="M4.96,16.17c-2.04.22-7.46,6.76-3.62,11.55,3.84,4.8,9.32-1.31,9.5-4.8.23-4.36-3.84-6.97-5.88-6.76M2.4,26.46c-2.85-3.56,1.17-8.41,2.68-8.57,1.51-.16,4.53,1.78,4.36,5.01-.13,2.58-4.19,7.11-7.04,3.56"/>
    </g>
  </g>
</svg>
