<?xml version="1.0" encoding="UTF-8"?>
<svg id="Layer_2" data-name="Layer 2" xmlns="http://www.w3.org/2000/svg" viewBox="0 0 431.42 702.12">
  <defs>
    <style>
      .cls-1 {
        fill: #030846;
      }
    </style>
  </defs>
  <g id="Layer_1-2" data-name="Layer 1">
    <g id="logo_v-no_accent-bold">
      <g id="text">
        <g id="main">
          <g>
            <path class="cls-1" d="M29.79,410.6v130.76H7.97v-130.76h21.82ZM79.72,465.03v18.32H24.76v-18.32h54.96ZM96.78,410.6v130.76h-21.64v-130.76h21.64Z"/>
            <path class="cls-1" d="M168.85,428.57l-31.61,112.79h-22.81l41.49-130.76h14.28l-1.35,17.96ZM194.62,492.78v18.32h-60.89v-18.32h60.89ZM194.08,541.36l-31.7-112.79-1.44-17.96h14.37l41.67,130.76h-22.9Z"/>
            <path class="cls-1" d="M293.26,498.7h21.73c-.42,9.46-2.33,17.5-5.75,24.11-3.41,6.62-8.31,11.66-14.68,15.13-6.38,3.47-14.14,5.21-23.3,5.21-6.95,0-13.14-1.26-18.59-3.77-5.45-2.51-10.1-6.15-13.96-10.91-3.86-4.76-6.78-10.58-8.76-17.47-1.98-6.88-2.96-14.7-2.96-23.44v-23.17c0-8.74,1.03-16.55,3.1-23.44,2.07-6.88,5.04-12.74,8.94-17.56,3.89-4.82,8.62-8.46,14.19-10.91,5.57-2.45,11.88-3.68,18.95-3.68,9.04,0,16.64,1.74,22.81,5.21,6.17,3.47,10.92,8.56,14.28,15.27,3.35,6.71,5.33,14.88,5.93,24.52h-21.82c-.3-6.52-1.18-11.73-2.65-15.63-1.47-3.89-3.68-6.7-6.65-8.44-2.96-1.74-6.93-2.6-11.9-2.6-4.13,0-7.68.75-10.64,2.25-2.96,1.5-5.39,3.8-7.27,6.91-1.89,3.11-3.29,6.99-4.22,11.63-.93,4.64-1.39,10.07-1.39,16.3v23.35c0,5.93.39,11.21,1.17,15.85.78,4.64,2.03,8.56,3.77,11.76,1.74,3.2,4.04,5.63,6.91,7.27,2.87,1.65,6.47,2.47,10.78,2.47,5.15,0,9.26-.81,12.35-2.42,3.08-1.62,5.37-4.32,6.87-8.13,1.5-3.8,2.42-9.03,2.78-15.67Z"/>
            <path class="cls-1" d="M356.27,410.6v130.76h-21.82v-130.76h21.82ZM421.56,410.6l-43.56,63.13-26.13,32.06-4.13-22.81,18.05-26.76,29.37-45.62h26.4ZM397.58,541.36l-33.05-61.7,14.91-15.63,44,77.32h-25.86Z"/>
          </g>
          <g>
            <path class="cls-1" d="M75.45,569.57h21.73v90.88c0,9.94-1.86,17.96-5.57,24.07-3.71,6.11-8.73,10.57-15.04,13.38-6.32,2.81-16.78,4.22-24.51,4.22s-17.48-1.41-23.76-4.22c-6.29-2.81-11.23-7.27-14.82-13.38-3.59-6.11-5.39-14.13-5.39-24.07v-90.88h21.73v90.88c0,6.17.79,10.96,2.38,14.37,1.59,3.41,3.86,5.76,6.83,7.05,2.96,1.29,8.84,1.93,13.03,1.93s11.2-.64,14.14-1.93c2.93-1.29,5.21-3.64,6.83-7.05,1.62-3.41,2.42-8.2,2.42-14.37v-90.88Z"/>
            <path class="cls-1" d="M146.41,569.57v130.76h-21.82v-130.76h21.82ZM156.65,700.32h-22.63l.18-18.32h22.45c7,0,12.6-1.3,16.79-3.91,4.19-2.6,7.21-6.6,9.07-11.99,1.85-5.39,2.78-12.24,2.78-20.57v-21.28c0-6.47-.53-12-1.57-16.61-1.05-4.61-2.68-8.35-4.89-11.23-2.22-2.87-5.07-5-8.58-6.38-3.5-1.38-7.77-2.07-12.8-2.07h-23.89v-18.41h23.89c7.48,0,14.26,1.2,20.34,3.59,6.08,2.4,11.28,5.91,15.63,10.55,4.34,4.64,7.66,10.37,9.97,17.2,2.3,6.83,3.46,14.67,3.46,23.53v21.1c0,8.86-1.15,16.69-3.46,23.48-2.31,6.8-5.64,12.51-10.01,17.15-4.37,4.64-9.64,8.16-15.81,10.55-6.17,2.4-13.14,3.59-20.92,3.59Z"/>
            <path class="cls-1" d="M293.87,657.67h21.73c-.42,9.46-2.33,17.5-5.75,24.11-3.41,6.62-8.31,11.66-14.68,15.13-6.38,3.47-14.14,5.21-23.3,5.21-6.95,0-13.14-1.26-18.59-3.77-5.45-2.51-10.1-6.15-13.96-10.91-3.86-4.76-6.78-10.58-8.76-17.47-1.98-6.88-2.96-14.7-2.96-23.44v-23.17c0-8.74,1.03-16.55,3.1-23.44,2.07-6.88,5.04-12.74,8.94-17.56,3.89-4.82,8.62-8.46,14.19-10.91,5.57-2.45,11.88-3.68,18.95-3.68,9.04,0,16.64,1.74,22.81,5.21,6.17,3.47,10.92,8.56,14.28,15.27,3.35,6.71,5.33,14.88,5.93,24.52h-21.82c-.3-6.52-1.18-11.73-2.65-15.63-1.47-3.89-3.68-6.7-6.65-8.44-2.96-1.74-6.93-2.6-11.9-2.6-4.13,0-7.68.75-10.64,2.25-2.96,1.5-5.39,3.8-7.27,6.91-1.89,3.11-3.29,6.99-4.22,11.63-.93,4.64-1.39,10.07-1.39,16.3v23.35c0,5.93.39,11.21,1.17,15.85.78,4.64,2.03,8.56,3.77,11.76,1.74,3.2,4.04,5.63,6.91,7.27,2.87,1.65,6.47,2.47,10.78,2.47,5.15,0,9.26-.81,12.35-2.42,3.08-1.62,5.37-4.32,6.87-8.13,1.5-3.8,2.42-9.03,2.78-15.67Z"/>
          </g>
        </g>
        <g>
          <path class="cls-1" d="M378.53,620.74v8.25h-35.26v-7.11l16.71-21.67c1.79-2.44,3.2-4.56,4.21-6.35,1.01-1.8,1.71-3.4,2.1-4.82.39-1.42.59-2.81.59-4.19,0-1.91-.26-3.59-.78-5.05-.52-1.46-1.28-2.61-2.29-3.45-1.01-.84-2.23-1.26-3.66-1.26-1.88,0-3.4.49-4.57,1.47-1.16.98-2.03,2.32-2.59,4.02-.56,1.7-.84,3.64-.84,5.83h-9.8c0-3.56.69-6.83,2.08-9.8,1.39-2.97,3.41-5.34,6.06-7.09,2.65-1.75,5.9-2.63,9.74-2.63,3.53,0,6.53.69,8.98,2.08,2.45,1.39,4.32,3.35,5.6,5.87,1.28,2.52,1.91,5.51,1.91,8.96,0,1.91-.25,3.8-.76,5.68-.51,1.88-1.23,3.75-2.17,5.62-.94,1.87-2.06,3.74-3.37,5.62-1.3,1.88-2.74,3.79-4.31,5.72l-10.56,14.31h22.98Z"/>
          <path class="cls-1" d="M420.61,593.22v10.06c0,4.8-.41,8.88-1.24,12.25-.83,3.37-1.99,6.1-3.49,8.21-1.5,2.1-3.3,3.65-5.39,4.63-2.09.98-4.41,1.47-6.96,1.47-2.02,0-3.91-.32-5.66-.95-1.75-.63-3.35-1.6-4.78-2.9s-2.64-3-3.64-5.09c-1-2.09-1.77-4.59-2.31-7.49-.55-2.9-.82-6.28-.82-10.12v-10.06c0-4.82.42-8.9,1.26-12.22.84-3.32,2.01-6.03,3.51-8.12,1.5-2.09,3.3-3.61,5.41-4.57,2.1-.95,4.43-1.43,6.99-1.43,2.02,0,3.91.3,5.68.9,1.77.6,3.35,1.55,4.73,2.84,1.39,1.29,2.59,2.97,3.6,5.03s1.78,4.54,2.31,7.45c.53,2.9.8,6.28.8,10.12ZM410.85,604.71v-13.05c0-2.41-.11-4.54-.34-6.4-.22-1.85-.54-3.42-.95-4.69-.41-1.28-.91-2.32-1.51-3.14-.6-.81-1.28-1.41-2.04-1.79-.76-.38-1.6-.57-2.52-.57-1.12,0-2.14.29-3.05.88-.91.59-1.69,1.54-2.34,2.84-.65,1.3-1.13,3.02-1.45,5.13-.32,2.12-.48,4.69-.48,7.72v13.05c0,2.44.11,4.59.34,6.46.22,1.87.54,3.46.95,4.78.41,1.32.9,2.39,1.49,3.22.59.83,1.27,1.44,2.04,1.83.77.39,1.62.59,2.55.59,1.15,0,2.19-.31,3.11-.93.93-.62,1.7-1.59,2.31-2.92.62-1.33,1.09-3.08,1.41-5.24.32-2.16.48-4.76.48-7.79Z"/>
          <path class="cls-1" d="M378.95,691.78v9.8h-36.11v-8.37l16.58-21.12c1.6-2.16,2.85-4.08,3.75-5.76.9-1.68,1.54-3.19,1.94-4.52.39-1.33.59-2.6.59-3.81,0-1.8-.21-3.35-.63-4.65s-1.05-2.31-1.87-3.01c-.83-.7-1.85-1.05-3.05-1.05-1.46,0-2.67.44-3.62,1.33-.95.88-1.66,2.1-2.13,3.66s-.69,3.32-.69,5.28h-11.82c0-3.65.75-7.01,2.25-10.08,1.5-3.07,3.62-5.51,6.35-7.32,2.74-1.81,6.02-2.71,9.87-2.71s6.87.7,9.43,2.1c2.55,1.4,4.48,3.4,5.79,6,1.3,2.6,1.96,5.7,1.96,9.32,0,2.02-.27,3.99-.8,5.91-.53,1.92-1.29,3.83-2.27,5.72-.98,1.89-2.2,3.82-3.64,5.79-1.45,1.96-3.05,4-4.82,6.1l-8,11.4h20.96Z"/>
          <path class="cls-1" d="M422.3,640.32v6.73l-19.36,54.54h-12.46l19.44-51.47h-24.66v-9.8h37.03Z"/>
        </g>
      </g>
      <g id="iso">
        <path class="cls-1" d="M111.09,378.01c-2.05,0-3.9-1.07-4.95-2.85L.79,196c-1.04-1.76-1.05-3.97-.04-5.75L106.63,2.93c1-1.8,2.92-2.93,5.02-2.93h208.41c2.04,0,3.96,1.1,5,2.87l105.59,182.17c1.01,1.75,1.02,3.94.01,5.72-1.05,1.83-2.92,2.91-5.02,2.91h-173.25v88.69h47.35c3.17,0,5.75,2.58,5.75,5.75v30.71c0,3.17-2.58,5.75-5.75,5.75h-165.31c-3.17,0-5.75-2.58-5.75-5.75v-29.8c0-3.17,2.58-5.75,5.75-5.75h39.02v-121.91c0-1.83.88-3.57,2.35-4.66l8.72-6.35v-28.94c0-1.69.74-3.29,2.02-4.37l7.68-6.57v-32.06c0-3.17,2.58-5.75,5.75-5.75s5.75,2.58,5.75,5.75v9.02l5.77-4.82c1.03-.86,2.35-1.34,3.71-1.34.19,0,.39,0,.58.03,1.56.16,2.96.93,3.93,2.17l10.16,12.92c.79.98,1.23,2.26,1.23,3.58v10.82l7.9,5.44c1.55,1.06,2.48,2.83,2.48,4.75v28.66c2.69,1.86,4.36,4.98,4.36,8.32,0,5.58-4.54,10.12-10.12,10.12s-10.12-4.54-10.12-10.12c0-3.22,1.54-6.26,4.13-8.13.08-.06.15-.11.23-.17v-25.64l-7.9-5.44c-1.54-1.01-2.48-2.8-2.48-4.75v-11.85l-5.27-6.69-8.62,7.18v10.69c0,1.69-.74,3.29-2.02,4.37l-7.68,6.57v29.21c0,1.83-.88,3.57-2.35,4.66l-8.72,6.35v124.75c0,3.17-2.58,5.75-5.75,5.75h-39.02v18.27h153.8v-19.2h-47.35c-3.17,0-5.75-2.58-5.75-5.75v-100.2c0-3.17,2.58-5.75,5.75-5.75h169.03L316.77,11.53H115.03L12.43,193.05l101.93,173.46h202.78l9.71-16.21h-189.29c-.18.26-.37.51-.57.75-1.9,2.28-4.72,3.59-7.71,3.59-5.58,0-10.12-4.54-10.12-10.12s4.54-10.12,10.12-10.12c3.34,0,6.46,1.67,8.32,4.36h199.47c2.06,0,3.98,1.12,5.01,2.92,1.04,1.81,1.01,4.04-.08,5.82l-16.61,27.7c-1.04,1.73-2.93,2.81-4.94,2.81H111.09Z"/>
        <path class="cls-1" d="M374.47,169.11c-2.7,0-5.24-1.06-7.15-2.97-1.91-1.91-2.96-4.46-2.96-7.16,0-1.45.31-2.87.91-4.18l-68.79-116.06H124.28c-3.17,0-5.75-2.58-5.75-5.75s2.58-5.75,5.75-5.75h175.48c2.05,0,3.95,1.09,4.96,2.84l70.46,118.83c5.25.36,9.41,4.75,9.41,10.09s-4.54,10.12-10.12,10.12h0Z"/>
        <path class="cls-1" d="M39.29,197.15c-1.54,0-2.99-.62-4.08-1.72-1.08-1.1-1.68-2.55-1.67-4.1,0-1,.27-1.99.77-2.85L112.37,56.85c1.05-1.74,2.95-2.82,4.97-2.82h158.81c1.87-2.71,4.94-4.34,8.31-4.34,5.58,0,10.09,4.46,10.15,9.95v.14c0,5.56-4.55,10.09-10.12,10.09-3.37,0-6.44-1.63-8.31-4.34H120.62L44.25,194.33c-.99,1.73-2.89,2.82-4.95,2.82h-.01Z"/>
        <path class="cls-1" d="M120.24,280.83c-5.58,0-10.12-4.54-10.12-10.12,0-1.16.2-2.31.59-3.4l-44.06-68.16c-1.17-1.83-1.23-4.13-.16-6.01l61.42-105.76c1.04-1.77,2.94-2.86,4.98-2.86h26.48c1.56,0,3.01.6,4.09,1.7,1.12,1.07,1.75,2.59,1.71,4.18l-.63,26.57c-.08,3.11-2.64,5.63-5.72,5.63h-.21c-3.12-.09-5.64-2.71-5.6-5.86l.48-20.7h-17.27l-57.98,99.81,41.86,64.73s.08,0,.12,0c5.58,0,10.12,4.54,10.12,10.12s-4.54,10.12-10.12,10.12h0Z"/>
        <path class="cls-1" d="M153.17,213.1c-5.58,0-10.12-4.54-10.12-10.12,0-1.05.16-2.08.48-3.08l-29.42-37.35c-1.95-2.45-1.55-6.08.91-8.08,1.02-.82,2.29-1.26,3.59-1.26,1.79,0,3.44.8,4.54,2.2l29.52,37.43c.16,0,.31-.01.47-.01,4.87,0,9.06,3.47,9.97,8.26.12.62.18,1.25.18,1.88,0,5.58-4.54,10.12-10.12,10.12Z"/>
        <path class="cls-1" d="M300.85,151.33c-5.56,0-10.1-4.53-10.11-10.09,0-1.09.18-2.18.52-3.22l-9.69-14.42c-1.76-2.63-1.05-6.21,1.57-7.99.97-.65,2.08-.98,3.22-.98,1.92,0,3.71.96,4.78,2.56l9.34,13.91c.12,0,.25,0,.37,0,5.58,0,10.12,4.54,10.12,10.12s-4.54,10.12-10.12,10.12h-.01Z"/>
        <path class="cls-1" d="M267.09,251.44c-1.05,0-2.1-.3-3.04-.86-2.71-1.74-3.51-5.3-1.83-7.97l15.72-24.69c-.57-1.29-.87-2.67-.87-4.07,0-5.58,4.54-10.12,10.12-10.12,5.58.03,10.12,4.57,10.12,10.12s-4.23,9.81-9.55,10.1l-15.81,24.83c-1.03,1.66-2.86,2.66-4.86,2.66Z"/>
        <path class="cls-1" d="M292.84,268.94c-5.58,0-10.12-4.54-10.12-10.12s4.54-10.12,10.12-10.12h.05l26.79-41.04c1.06-1.63,2.87-2.6,4.83-2.6,1.12,0,2.21.32,3.16.94,2.6,1.71,3.34,5.26,1.66,7.93l-27,41.36c.77,2.05.85,4.28.22,6.41-.77,2.59-2.5,4.73-4.88,6.02-1.47.8-3.14,1.22-4.82,1.23h0Z"/>
        <path class="cls-1" d="M358.57,269.92c-5.58,0-10.12-4.54-10.12-10.12,0-5.33,4.14-9.71,9.37-10.09l19.66-31.56h-21.71l-27.76,43.69c-1.05,1.67-2.87,2.67-4.85,2.67-1.09,0-2.16-.31-3.09-.89-2.68-1.71-3.47-5.27-1.79-7.95l29.46-46.36c1.03-1.64,2.9-2.67,4.86-2.67h35.28c2.06,0,3.99,1.13,5.03,2.94l.06.12c.94,1.87.82,4.1-.29,5.81l-24.93,40.04c.61,1.33.93,2.77.93,4.25,0,5.58-4.54,10.12-10.12,10.12Z"/>
        <path class="cls-1" d="M263.29,168.04c-3.17,0-5.75-2.58-5.75-5.75v-39.25c0-3.17,2.58-5.75,5.75-5.75s5.75,2.58,5.75,5.75v33.5h62.13l-32.97-60.52h-45.08c-1.86,2.68-4.97,4.34-8.28,4.34-5.62,0-10.16-4.54-10.16-10.12s4.54-10.12,10.12-10.12c3.37,0,6.44,1.63,8.32,4.34h48.48c2.11,0,4.05,1.15,5.06,3.01l39.25,72.04c.96,1.89.91,4-.12,5.71-1.04,1.73-2.93,2.81-4.94,2.81h-77.57Z"/>
        <path class="cls-1" d="M157.38,164.75c-1.83,0-3.5-.84-4.58-2.3l-14.57-18.97c-.13,0-.24,0-.35,0-5.58,0-10.12-4.54-10.12-10.12s4.54-10.12,10.12-10.12,10.12,4.54,10.12,10.12c0,1.1-.18,2.18-.52,3.21l14.49,18.88c.94,1.24,1.34,2.75,1.14,4.27-.2,1.54-.99,2.9-2.22,3.83-.99.77-2.21,1.19-3.5,1.19Z"/>
        <path class="cls-1" d="M155.33,269.36c-1.91,0-3.65-.92-4.76-2.51l-45.98-67.77s-.09,0-.14,0c-5.58,0-10.12-4.54-10.12-10.12s4.54-10.12,10.12-10.12,10.12,4.54,10.12,10.12c0,1.17-.2,2.33-.59,3.42l46.13,67.96c1.77,2.66,1.08,6.25-1.54,8.02-.94.65-2.06,1-3.24,1Z"/>
        <path class="cls-1" d="M112.25,327.36c-2,0-3.89-1.06-4.93-2.77l-58.16-95.83c-4.7-.65-8.31-4.67-8.31-9.51,0-5.3,4.31-9.61,9.61-9.61s9.61,4.31,9.61,9.61c0,1.35-.29,2.68-.83,3.9l57.95,95.46c.8,1.3,1.04,2.85.68,4.35-.36,1.5-1.29,2.77-2.61,3.57-.87.55-1.92.84-3,.84Z"/>
        <path class="cls-1" d="M323.05,323.06c-1.01,0-2.01-.27-2.89-.78-1.33-.77-2.28-2.02-2.68-3.51-.4-1.49-.19-3.04.59-4.37.07-.12.14-.23.22-.35l14.35-22.91c-.86-1.98-1.05-4.18-.54-6.32.62-2.63,2.23-4.85,4.53-6.27,1.59-.98,3.43-1.5,5.3-1.5,5.59,0,10.13,4.54,10.13,10.12s-4.28,9.85-9.64,10.11l-14.41,22.98c-.99,1.7-2.9,2.8-4.95,2.8Z"/>
        <path class="cls-1" d="M354.41,328.94c-5.58,0-10.12-4.54-10.12-10.12,0-5.22,3.97-9.53,9.05-10.06l57.8-96.33c1.04-1.72,2.93-2.8,4.95-2.8,1.05,0,2.07.29,2.97.83,1.3.76,2.24,2.01,2.62,3.5.38,1.5.16,3.06-.64,4.38l-57.58,95.96c.7,1.4,1.06,2.93,1.06,4.52,0,5.58-4.54,10.12-10.12,10.12Z"/>
      </g>
    </g>
  </g>
</svg>
